<svg width="987" height="900" viewBox="0 0 987 900" fill="none" xmlns="http://www.w3.org/2000/svg">
<path d="M365 352.5C501.8 238.5 548 55.6667 574 -16L673 -52.75L732 -100.5C843.833 -97.6667 1074.1 -88 1100.5 -72C1126.9 -56 1079.17 16.3333 1052 50.5C980 88.3333 819.2 214.6 752 417C668 670 763 830.5 656 861.5C549 892.5 280.5 870.5 240.5 772.5C200.5 674.5 194 495 365 352.5Z" fill="#0E99B8"/>
<path d="M248.804 332.293C478.741 188.02 556.395 -43.3637 600.096 -134.061L766.497 -180.57L865.666 -241C1053.64 -237.414 1440.67 -225.181 1485.05 -204.932C1529.42 -184.683 1449.19 -93.1419 1403.53 -49.9024C1282.51 -2.02254 1012.23 157.774 899.282 413.921C758.093 734.104 917.771 937.224 737.923 976.456C558.075 1015.69 106.775 987.846 39.542 863.823C-27.6908 739.799 -38.6162 512.633 248.804 332.293Z" fill="#0E99B8" fill-opacity="0.6"/>
</svg>
