<svg width="30" height="30" viewBox="0 0 30 30" fill="none" xmlns="http://www.w3.org/2000/svg">
<path d="M18.375 17.5H17.3875L17.0375 17.1625C18.2625 15.7375 19 13.8875 19 11.875C19 7.3875 15.3625 3.75 10.875 3.75C6.3875 3.75 2.75 7.3875 2.75 11.875C2.75 16.3625 6.3875 20 10.875 20C12.8875 20 14.7375 19.2625 16.1625 18.0375L16.5 18.3875V19.375L22.75 25.6125L24.6125 23.75L18.375 17.5ZM10.875 17.5C7.7625 17.5 5.25 14.9875 5.25 11.875C5.25 8.7625 7.7625 6.25 10.875 6.25C13.9875 6.25 16.5 8.7625 16.5 11.875C16.5 14.9875 13.9875 17.5 10.875 17.5Z" fill="black"/>
</svg>
